<?xml version="1.0" encoding="utf-8"?>
<!-- Generator: Adobe Illustrator 17.0.0, SVG Export Plug-In . SVG Version: 6.00 Build 0)  -->
<!DOCTYPE svg PUBLIC "-//W3C//DTD SVG 1.1//EN" "http://www.w3.org/Graphics/SVG/1.1/DTD/svg11.dtd">
<svg version="1.1" id="Layer_1" xmlns="http://www.w3.org/2000/svg" xmlns:xlink="http://www.w3.org/1999/xlink" x="0px" y="0px"
	 width="829.9px" height="199.7px" viewBox="0 0 829.9 199.7" enable-background="new 0 0 829.9 199.7" xml:space="preserve">
<path fill="#0D0D0D" d="M320.1,180.4c16.1,12.8,36.3,19.3,57.5,19.3c32.7,0,53.8-18,53.8-46.2c0-26.8-18.5-37.1-46.2-44.3
	c-24.9-6.4-28.5-9.2-28.5-16.6c0-6,6.2-9.9,15.7-9.9c9.6,0,19.8,3,31.2,10.2c2.2,1.4,5.1,0.9,6.6-1.3l13.5-19.3
	c1.5-2.1,1.1-5.2-1.1-6.7c-14.4-10.2-31.1-14.9-49.8-14.9c-30.3,0-51.4,18.3-51.4,45c0,30.4,20.9,38.2,48.2,45.1
	c24.7,6.3,26.5,10.1,26.5,16c0,6.8-6.7,10.9-17.9,10.9c-12.6,0-24.4-3.8-36.7-12.9c-2.1-1.5-5-1.3-6.7,0.7l-15.3,18.2
	C317.8,175.8,318,178.8,320.1,180.4z"/>
<polyline fill-rule="evenodd" clip-rule="evenodd" fill="#0D0D0D" points="580.7,82.8 580.7,58 580.7,57.7 580.8,57.4 580.9,57 
	580.9,56.8 581.1,56.5 581.2,56.2 581.4,55.9 581.6,55.7 581.8,55.5 582,55.2 582.2,55.1 582.5,54.9 582.8,54.8 583.1,54.6 
	583.4,54.5 583.7,54.5 584,54.4 584.3,54.4 690.6,54.4 690.9,54.4 691.2,54.5 691.5,54.5 691.8,54.6 692.1,54.8 692.3,54.9 
	692.6,55.1 692.9,55.2 693.1,55.5 693.3,55.7 693.5,55.9 693.6,56.2 693.8,56.5 693.9,56.8 694,57 694.1,57.4 694.1,57.7 694.1,58 
	694.1,81 694.1,81.3 694.1,81.6 694,81.9 693.9,82.2 693.8,82.5 693.6,82.8 693.5,83 693.3,83.3 693.1,83.5 692.9,83.7 692.6,83.9 
	692.3,84.1 692.1,84.2 691.8,84.3 691.5,84.4 691.2,84.5 690.9,84.5 690.6,84.5 613.3,84.5 613.2,84.6 613.1,84.6 612.9,84.7 
	612.8,84.7 612.7,84.9 612.7,85 612.6,85.1 612.6,85.2 612.6,109.5 612.6,109.7 612.7,109.8 612.7,109.9 612.8,110 612.9,110.1 
	613.1,110.2 613.2,110.2 613.3,110.2 683.5,110.2 683.8,110.2 684.1,110.3 684.4,110.3 684.7,110.4 685,110.6 685.3,110.7 
	685.5,110.9 685.8,111.1 686,111.3 686.2,111.5 686.4,111.7 686.6,112 686.7,112.3 686.8,112.6 686.9,112.9 687,113.2 687,113.5 
	687,113.8 687,136.8 687,137.1 687,137.4 686.9,137.7 686.8,138 686.7,138.3 686.6,138.6 686.4,138.8 686.2,139.1 686,139.3 
	685.8,139.5 685.5,139.7 685.3,139.9 685,140 684.7,140.1 684.4,140.2 684.1,140.3 683.8,140.3 683.5,140.3 613.3,140.3 
	613.2,140.4 613.1,140.4 612.9,140.5 612.8,140.6 612.7,140.7 612.7,140.8 612.6,140.9 612.6,141.1 612.6,165.3 612.6,165.5 
	612.7,165.6 612.7,165.7 612.8,165.8 612.9,165.9 613.1,166 613.2,166 613.3,166 690.6,166 690.9,166 691.2,166.1 691.5,166.2 
	691.8,166.2 692.1,166.4 692.3,166.5 692.6,166.7 692.9,166.9 693.1,167.1 693.3,167.3 693.5,167.5 693.6,167.8 693.8,168.1 
	693.9,168.4 694,168.7 694.1,169 694.1,169.3 694.1,169.6 694.1,192.6 694.1,192.9 694.1,193.2 694,193.5 693.9,193.8 693.8,194.1 
	693.6,194.4 693.5,194.6 693.3,194.9 693.1,195.1 692.9,195.3 692.6,195.5 692.3,195.7 692.1,195.8 691.8,195.9 691.5,196 
	691.2,196.1 690.9,196.1 690.6,196.2 609.1,196.2 584.3,196.2 584,196.1 583.7,196.1 583.4,196 583.1,195.9 582.8,195.8 
	582.5,195.7 582.2,195.5 582,195.3 581.8,195.1 581.6,194.9 581.4,194.6 581.2,194.4 581.1,194.1 580.9,193.8 580.9,193.5 
	580.8,193.2 580.7,192.9 580.7,192.6 580.7,82.8 "/>
<polyline fill-rule="evenodd" clip-rule="evenodd" fill="#0D0D0D" points="189.7,82.8 189.7,58 189.7,57.7 189.8,57.4 189.9,57 
	189.9,56.8 190.1,56.5 190.2,56.2 190.4,55.9 190.6,55.7 190.8,55.5 191,55.2 191.2,55.1 191.5,54.9 191.8,54.8 192.1,54.6 
	192.4,54.5 192.7,54.5 193,54.4 193.3,54.4 299.6,54.4 299.9,54.4 300.2,54.5 300.5,54.5 300.8,54.6 301.1,54.8 301.3,54.9 
	301.6,55.1 301.9,55.2 302.1,55.5 302.3,55.7 302.5,55.9 302.6,56.2 302.8,56.5 302.9,56.8 303,57 303.1,57.4 303.1,57.7 303.1,58 
	303.1,81 303.1,81.3 303.1,81.6 303,81.9 302.9,82.2 302.8,82.5 302.6,82.8 302.5,83 302.3,83.3 302.1,83.5 301.9,83.7 301.6,83.9 
	301.3,84.1 301.1,84.2 300.8,84.3 300.5,84.4 300.2,84.5 299.9,84.5 299.6,84.5 222.3,84.5 222.2,84.6 222.1,84.6 221.9,84.7 
	221.8,84.7 221.7,84.9 221.7,85 221.6,85.1 221.6,85.2 221.6,109.5 221.6,109.7 221.7,109.8 221.7,109.9 221.8,110 221.9,110.1 
	222.1,110.2 222.2,110.2 222.3,110.2 292.5,110.2 292.8,110.2 293.1,110.3 293.4,110.3 293.7,110.4 294,110.6 294.3,110.7 
	294.5,110.9 294.8,111.1 295,111.3 295.2,111.5 295.4,111.7 295.6,112 295.7,112.3 295.8,112.6 295.9,112.9 296,113.2 296,113.5 
	296,113.8 296,136.8 296,137.1 296,137.4 295.9,137.7 295.8,138 295.7,138.3 295.6,138.6 295.4,138.8 295.2,139.1 295,139.3 
	294.8,139.5 294.5,139.7 294.3,139.9 294,140 293.7,140.1 293.4,140.2 293.1,140.3 292.8,140.3 292.5,140.3 222.3,140.3 
	222.2,140.4 222.1,140.4 221.9,140.5 221.8,140.6 221.7,140.7 221.7,140.8 221.6,140.9 221.6,141.1 221.6,165.3 221.6,165.5 
	221.7,165.6 221.7,165.7 221.8,165.8 221.9,165.9 222.1,166 222.2,166 222.3,166 299.6,166 299.9,166 300.2,166.1 300.5,166.2 
	300.8,166.2 301.1,166.4 301.3,166.5 301.6,166.7 301.9,166.9 302.1,167.1 302.3,167.3 302.5,167.5 302.6,167.8 302.8,168.1 
	302.9,168.4 303,168.7 303.1,169 303.1,169.3 303.1,169.6 303.1,192.6 303.1,192.9 303.1,193.2 303,193.5 302.9,193.8 302.8,194.1 
	302.6,194.4 302.5,194.6 302.3,194.9 302.1,195.1 301.9,195.3 301.6,195.5 301.3,195.7 301.1,195.8 300.8,195.9 300.5,196 
	300.2,196.1 299.9,196.1 299.6,196.2 218.1,196.2 193.3,196.2 193,196.1 192.7,196.1 192.4,196 192.1,195.9 191.8,195.8 
	191.5,195.7 191.2,195.5 191,195.3 190.8,195.1 190.6,194.9 190.4,194.6 190.2,194.4 190.1,194.1 189.9,193.8 189.9,193.5 
	189.8,193.2 189.7,192.9 189.7,192.6 189.7,82.8 "/>
<polyline fill-rule="evenodd" clip-rule="evenodd" fill="#0D0D0D" points="713.3,196.2 712.9,196.1 712.6,196.1 712.3,196 
	712,195.9 711.8,195.8 711.5,195.7 711.2,195.5 711,195.3 710.7,195.1 710.5,194.9 710.3,194.6 710.2,194.4 710,194.1 709.9,193.8 
	709.8,193.5 709.8,193.2 709.7,192.9 709.7,192.6 709.7,58 709.7,57.7 709.8,57.4 709.8,57 709.9,56.8 710,56.5 710.2,56.2 
	710.3,55.9 710.5,55.7 710.7,55.5 711,55.2 711.2,55.1 711.5,54.9 711.8,54.8 712,54.6 712.3,54.5 712.6,54.5 712.9,54.4 
	713.3,54.4 741.6,54.4 773.5,54.4 780.6,54.4 781.8,54.4 783,54.5 784.2,54.6 785.4,54.7 786.5,54.8 787.7,55 788.9,55.2 
	790.1,55.4 791.3,55.6 792.4,55.9 793.6,56.2 794.7,56.6 795.9,56.9 797,57.3 798.1,57.8 799.2,58.2 800.3,58.7 801.4,59.2 
	802.5,59.7 803.5,60.3 804.6,60.9 805.6,61.5 806.6,62.1 807.6,62.8 808.6,63.5 809.6,64.2 810.5,64.9 811.4,65.7 812.3,66.5 
	813.2,67.3 814.1,68.1 814.9,69 815.7,69.8 816.5,70.7 817.3,71.6 818.1,72.6 818.8,73.5 819.5,74.5 820.2,75.5 820.9,76.5 
	821.5,77.5 822.1,78.5 822.7,79.6 823.2,80.6 823.8,81.7 824.3,82.8 824.7,83.9 825.2,85 825.6,86.1 826,87.2 826.4,88.4 
	826.7,89.5 827,90.7 827.3,91.9 827.5,93 827.7,94.2 827.9,95.4 828.1,96.6 828.2,97.8 828.3,99 828.4,100.2 828.4,101.4 
	828.4,102.6 828.4,103.8 828.3,104.9 828.3,106.1 828.1,107.3 828,108.5 827.8,109.7 827.6,110.9 827.4,112.1 827.1,113.2 
	826.8,114.4 826.5,115.5 826.2,116.7 825.8,117.8 825.4,119 825,120.1 824.5,121.2 824,122.3 823.5,123.4 823,124.4 822.4,125.5 
	821.8,126.5 821.2,127.5 820.5,128.5 819.9,129.5 819.2,130.5 818.5,131.5 817.7,132.4 816.9,133.3 816.2,134.2 815.3,135.1 
	814.5,136 813.7,136.8 812.8,137.6 811.9,138.4 811,139.2 810,139.9 809.1,140.7 808.1,141.4 807.1,142 806.1,142.7 805.1,143.3 
	804.1,143.9 803,144.5 801.9,145 800.9,145.6 799.8,146.1 829.5,191.8 829.6,192 829.7,192.3 829.8,192.6 829.9,192.8 829.9,193.1 
	829.9,193.4 829.9,193.7 829.8,194 829.8,194.3 829.6,194.5 829.5,194.8 829.3,195 829.2,195.3 828.9,195.5 828.7,195.6 
	828.5,195.8 828.2,195.9 827.9,196 827.7,196.1 827.4,196.1 827.1,196.2 796.3,196.2 796,196.1 795.7,196.1 795.5,196 795.2,195.9 
	794.9,195.8 794.7,195.7 794.5,195.5 794.3,195.3 794.1,195.1 793.9,194.9 760.2,143 748.1,124.4 748,124.1 747.9,123.8 
	747.8,123.6 747.7,123.3 747.7,123 747.7,122.7 747.7,122.4 747.7,122.1 747.8,121.8 747.9,121.6 748.1,121.3 748.2,121.1 
	748.4,120.9 748.6,120.7 748.9,120.5 749.1,120.3 749.4,120.2 749.6,120.1 749.9,120 750.2,120 750.5,120 773.5,120 774.2,120 
	774.9,119.9 775.7,119.8 776.4,119.7 777.1,119.6 777.8,119.4 778.5,119.3 779.2,119 779.8,118.8 780.5,118.5 781.2,118.2 
	781.8,117.9 782.4,117.5 783.1,117.2 783.7,116.8 784.2,116.3 784.8,115.9 785.4,115.4 785.9,114.9 786.4,114.4 786.9,113.9 
	787.3,113.3 787.8,112.7 788.2,112.1 788.6,111.5 788.9,110.9 789.3,110.3 789.6,109.6 789.9,109 790.2,108.3 790.4,107.6 
	790.6,106.9 790.8,106.2 790.9,105.5 791,104.8 791.1,104.1 791.2,103.3 791.2,102.6 791.2,101.9 791.2,101.2 791.1,100.5 791,99.7 
	790.9,99 790.8,98.3 790.6,97.6 790.4,96.9 790.2,96.2 789.9,95.6 789.6,94.9 789.3,94.2 788.9,93.6 788.6,93 788.2,92.4 
	787.8,91.8 787.3,91.2 786.9,90.7 786.4,90.1 785.9,89.6 785.4,89.1 784.8,88.6 784.2,88.2 783.7,87.8 783.1,87.4 782.4,87 
	781.8,86.6 781.2,86.3 780.5,86 779.8,85.7 779.2,85.5 778.5,85.3 777.8,85.1 777.1,84.9 776.4,84.8 775.7,84.7 774.9,84.6 
	774.2,84.6 773.5,84.5 742.3,84.5 742.2,84.6 742,84.6 741.9,84.7 741.8,84.7 741.7,84.9 741.7,85 741.6,85.1 741.6,85.2 
	741.6,192.6 741.6,192.9 741.5,193.2 741.5,193.5 741.4,193.8 741.3,194.1 741.1,194.4 741,194.6 740.8,194.9 740.6,195.1 
	740.3,195.3 740.1,195.5 739.8,195.7 739.6,195.8 739.3,195.9 739,196 738.7,196.1 738.4,196.1 738.1,196.2 713.3,196.2 "/>
<polyline fill-rule="evenodd" clip-rule="evenodd" fill="#0D0D0D" points="478.3,54.4 510.2,54.4 517.3,54.4 518.5,54.4 519.7,54.5 
	520.9,54.6 522.1,54.7 523.3,54.8 524.4,55 525.6,55.1 526.8,55.4 528,55.6 529.1,55.9 530.3,56.2 531.4,56.5 532.5,56.9 
	533.7,57.3 534.8,57.7 535.9,58.2 537,58.7 538.1,59.2 539.1,59.7 540.2,60.2 541.2,60.8 542.2,61.4 543.3,62.1 544.3,62.7 
	545.2,63.4 546.2,64.1 547.1,64.9 548.1,65.6 549,66.4 549.8,67.2 550.7,68 551.5,68.9 552.4,69.7 553.2,70.6 554,71.5 554.7,72.4 
	555.4,73.4 556.1,74.3 556.8,75.3 557.5,76.3 558.1,77.3 558.7,78.3 559.3,79.4 559.9,80.4 560.4,81.5 560.9,82.6 561.4,83.7 
	561.8,84.8 562.3,85.9 562.7,87 563,88.2 563.4,89.3 563.7,90.5 563.9,91.6 564.2,92.8 564.4,93.9 564.6,95.1 564.8,96.3 
	564.9,97.5 565,98.7 565.1,99.9 565.1,101.1 565.1,102.3 565.1,103.4 565.1,104.6 565,105.8 564.9,107 564.8,108.2 564.6,109.4 
	564.4,110.6 564.2,111.7 563.9,112.9 563.7,114.1 563.4,115.2 563,116.4 562.7,117.5 562.3,118.6 561.8,119.7 561.4,120.8 
	560.9,121.9 560.4,123 559.9,124.1 559.3,125.1 558.7,126.2 558.1,127.2 557.5,128.2 556.8,129.2 556.1,130.2 555.4,131.1 
	554.7,132.1 554,133 553.2,133.9 552.4,134.8 551.5,135.7 550.7,136.5 549.8,137.3 549,138.1 548.1,138.9 547.1,139.7 546.2,140.4 
	545.2,141.1 544.3,141.8 543.3,142.4 542.2,143.1 541.2,143.7 540.2,144.3 539.1,144.8 538.1,145.4 537,145.9 535.9,146.3 
	534.8,146.8 533.7,147.2 532.5,147.6 531.4,148 530.3,148.3 529.1,148.6 528,148.9 526.8,149.1 525.6,149.4 524.4,149.6 
	523.3,149.7 522.1,149.9 520.9,150 519.7,150 518.5,150.1 517.3,150.1 510.2,150.1 503.1,150.1 502.8,150.1 502.5,150 502.3,150 
	502,149.9 501.8,149.7 501.5,149.6 501.3,149.4 501.1,149.2 500.9,149 500.7,148.8 484.9,124.4 484.7,124.1 484.6,123.8 
	484.5,123.6 484.4,123.3 484.4,123 484.4,122.7 484.4,122.4 484.5,122.1 484.6,121.8 484.7,121.6 484.8,121.3 485,121.1 
	485.2,120.9 485.4,120.7 485.6,120.5 485.8,120.3 486.1,120.2 486.4,120.1 486.7,120 486.9,120 487.2,120 510.2,120 510.9,120 
	511.7,119.9 512.4,119.8 513.1,119.7 513.8,119.6 514.5,119.4 515.2,119.3 515.9,119 516.6,118.8 517.3,118.5 517.9,118.2 
	518.6,117.9 519.2,117.5 519.8,117.2 520.4,116.8 521,116.3 521.5,115.9 522.1,115.4 522.6,114.9 523.1,114.4 523.6,113.9 
	524.1,113.3 524.5,112.7 524.9,112.1 525.3,111.5 525.7,110.9 526,110.3 526.3,109.6 526.6,109 526.9,108.3 527.1,107.6 
	527.3,106.9 527.5,106.2 527.6,105.5 527.8,104.8 527.8,104.1 527.9,103.3 527.9,102.6 527.9,101.9 527.9,101.2 527.8,100.5 
	527.8,99.7 527.6,99 527.5,98.3 527.3,97.6 527.1,96.9 526.9,96.2 526.6,95.6 526.3,94.9 526,94.2 525.7,93.6 525.3,93 524.9,92.4 
	524.5,91.8 524.1,91.2 523.6,90.7 523.1,90.1 522.6,89.6 522.1,89.1 521.5,88.6 521,88.2 520.4,87.8 519.8,87.4 519.2,87 
	518.6,86.6 517.9,86.3 517.3,86 516.6,85.7 515.9,85.5 515.2,85.3 514.5,85.1 513.8,84.9 513.1,84.8 512.4,84.7 511.7,84.6 
	510.9,84.6 510.2,84.5 479,84.5 478.9,84.6 478.8,84.6 478.6,84.7 478.5,84.7 478.4,84.9 478.4,85 478.3,85.1 478.3,85.2 
	478.3,192.6 478.3,192.9 478.3,193.2 478.2,193.5 478.1,193.8 478,194.1 477.9,194.4 477.7,194.6 477.5,194.9 477.3,195.1 
	477.1,195.3 476.8,195.5 476.6,195.7 476.3,195.8 476,195.9 475.7,196 475.4,196.1 475.1,196.1 474.8,196.2 450,196.2 449.7,196.1 
	449.4,196.1 449.1,196 448.8,195.9 448.5,195.8 448.2,195.7 448,195.5 447.7,195.3 447.5,195.1 447.3,194.9 447.1,194.6 
	446.9,194.4 446.8,194.1 446.7,193.8 446.6,193.5 446.5,193.2 446.5,192.9 446.4,192.6 446.4,58 446.5,57.7 446.5,57.4 446.6,57 
	446.7,56.8 446.8,56.5 446.9,56.2 447.1,55.9 447.3,55.7 447.5,55.5 447.7,55.2 448,55.1 448.2,54.9 448.5,54.8 448.8,54.6 
	449.1,54.5 449.4,54.5 449.7,54.4 450,54.4 478.3,54.4 "/>
<polyline fill-rule="evenodd" clip-rule="evenodd" fill="#0D0D0D" points="2.8,54.4 32.4,54.4 32.7,54.4 33,54.5 33.2,54.5 
	33.5,54.6 33.7,54.8 34,54.9 34.2,55.1 34.4,55.3 34.6,55.5 34.8,55.7 34.9,55.9 89.9,161.6 129.5,85.6 129.6,85.4 129.6,85.3 
	129.6,85.2 129.5,85 129.5,84.9 129.4,84.8 129.3,84.7 129.2,84.6 129,84.6 128.9,84.5 92.1,84.5 91.7,84.5 91.4,84.5 91.1,84.4 
	90.8,84.3 90.5,84.2 90.2,84 90,83.9 89.7,83.7 89.5,83.4 89.3,83.2 89.1,82.9 88.9,82.7 75,56.4 74.9,56.2 74.8,55.9 74.8,55.6 
	74.7,55.4 74.7,55.1 74.7,54.8 74.8,54.6 74.8,54.3 74.9,54 75,53.8 75.2,53.6 75.3,53.3 75.5,53.1 75.7,52.9 136.5,0.2 136.6,0.1 
	136.7,0 136.9,0 137,0 137.1,0 137.3,0.1 137.4,0.2 137.5,0.2 137.6,0.4 137.6,0.5 137.6,0.6 137.7,0.8 137.6,0.9 137.6,1 
	110.3,53.4 110.3,53.5 110.2,53.7 110.2,53.8 110.3,53.9 110.3,54.1 110.4,54.2 110.5,54.3 110.7,54.4 110.8,54.4 110.9,54.4 
	177,54.4 177.3,54.4 177.6,54.5 177.9,54.6 178.1,54.7 178.4,54.8 178.6,54.9 178.9,55.1 179.1,55.3 179.3,55.5 179.4,55.8 
	179.6,56 179.7,56.3 179.8,56.6 179.8,56.9 179.8,57.2 179.8,57.5 179.8,57.7 179.7,58 179.6,58.3 179.5,58.6 108.7,194.6 
	108.5,194.9 108.4,195.1 108.2,195.3 108,195.5 107.8,195.7 107.5,195.8 107.3,195.9 107,196 106.7,196.1 106.5,196.1 106.2,196.2 
	73.7,196.2 73.4,196.1 73.1,196.1 72.8,196 72.6,195.9 72.3,195.8 72.1,195.7 71.8,195.5 71.6,195.3 71.5,195.1 71.3,194.9 
	71.1,194.6 0.3,58.6 0.2,58.3 0.1,58 0,57.7 0,57.5 0,57.2 0,56.9 0.1,56.6 0.2,56.3 0.3,56 0.4,55.8 0.6,55.5 0.8,55.3 1,55.1 
	1.2,54.9 1.4,54.8 1.7,54.7 2,54.6 2.3,54.5 2.5,54.4 2.8,54.4 "/>
</svg>
