<?xml version="1.0" encoding="utf-8"?>
<!DOCTYPE svg PUBLIC "-//W3C//DTD SVG 1.1//EN" "http://www.w3.org/Graphics/SVG/1.1/DTD/svg11.dtd">
<svg version="1.1" id="Layer_1" xmlns="http://www.w3.org/2000/svg" xmlns:xlink="http://www.w3.org/1999/xlink" x="0px" y="0px"
	 width="230.8px" height="86px" viewBox="0 0 230.8 86" enable-background="new 0 0 230.8 86" xml:space="preserve">
<g>
	<path d="M15.4,59.2l4.9-5.9c4.3-5.1,8.8-10.2,13.7-15c1.7-1.7,4.5-4.4,6.8-5.8c0.8-0.5,1.4-1.2,2.1-1.5c1-0.4,2.7-0.7,4.2-0.7
		c1.7,0,3.2,0.3,3.7,1.1c0.6,0.8,0.8,2,0.8,3.2c0,0.7,0,1.4-0.1,2.1c-0.4,3.4-4.5,8.9-5.7,11.2c0.9-0.5,1.6-1.3,2.3-2.1l0.6-0.7
		c3.9-4.4,8-9,12.6-12.8c0.8-0.7,1.8-1.2,2.6-1.9c0.6-0.4,0.9-1,1.5-1.3c0.8-0.4,1.7-0.7,2.6-0.7c0.2,0,0.5,0.1,0.7,0.1
		c0.5,0,2.8,0.3,3.3,0.5c1.2,0.4,2.1,0.4,2.8,1.1c0.7,0.5,0.9,1.2,0.9,2c0,0.9-0.2,2-0.3,3c0,0.3,0.1,0.6,0.1,0.8
		c-0.1,0.9-1,2.4-1.5,3.3c-0.1,0.1-0.1,0.2-0.1,0.3c-1.6,3.2-4.1,6.7-5.5,9.8c-2.6,4.2-5.2,8.4-7.4,13c-1,1.1-1.5,2.7-2.2,4.3
		c-0.5,1-1,2-1.3,3.1c-0.7,2.2-1.7,4.5-1.8,6.9c1.5-0.9,2.7-2.2,3.9-3.5c1.6-1.7,3.2-3.4,4.1-5.7c0.2,0.2,0.3,0.5,0.3,0.8
		c0,0.6-0.4,1.5-0.4,2.3v0.2c-0.3,0.3-0.4,0.9-0.6,1.2c-0.2,1.4-0.9,2.5-1.4,3.6c-0.5,1.1-0.9,2.2-1.5,3.3c-0.4,0.5-0.9,0.9-0.9,1.7
		v0.2c-0.8,1-1.4,2.3-2.3,3.3c-0.3,0.3-0.5,0.8-0.8,1c-0.3,0.2-0.6,0.1-1.1,0.3c-0.6,0.2-2.9,0.7-3.6,0.7c-0.4-0.1-0.8-0.5-1.3-0.8
		c-0.9-0.7-2.2-1.3-2.9-2.2c-0.4-0.6-1.1-1.5-1.3-2c-0.5-1.3-0.6-2.8-0.6-4.5c0-7.5,4-18.1,6.7-23.8c1.3-2.7,2.8-4.3,3.9-7
		c-1,0.5-1.7,1.4-2.4,2.2l-2.2,2.4c-1.4,1.7-2.6,3.6-4.1,5.2c-3,3.1-5.9,6.2-8.4,9.8c-1.7,1.3-2.6,3.4-4.2,4.7
		c-0.2,0-0.4-0.1-0.6-0.1c-1.1,0-1.5,0.7-2.5,0.8l-0.4-0.3c-2.2-1.3-4.4-2.7-4.4-6v-0.6c0.1-2.2,1-4.4,1.9-6.2
		c2.6-5.1,6.4-9.7,8.3-14.6c-1.4,0.9-3.4,3.1-4.6,4.5l-5.6,6.1c-1.1,1.3-2.4,2.6-3.5,4c-0.8,0.9-1.5,1.9-2.5,2.7
		c-1.6,1.9-3.1,3.9-4.9,5.9c-0.2,0.3-0.4,0.7-0.7,1l-3.7,4.7c-0.5,0.8-0.8,1.7-1.6,1.7c-0.2,0-0.5-0.1-0.9-0.3
		c-0.3-0.2-0.6-0.6-0.9-0.7c-0.5,0-0.9,0.6-1.4,0.8c-0.4,0.2-0.8,0.2-1.3,0.4c-1.3-0.7-2.6-1.5-3.8-2.6c-0.4-0.4-0.9-1-1.1-1.4
		C0.1,69.1,0,68.2,0,67.3c0-1.2,0.2-2.5,0.4-3.5c0.4-2,1-3.7,1.6-5.2c2.6-6.9,6-12.4,9.6-17.9c1.3-2.1,2.8-4.1,4.1-6.2
		c0.5-0.7,1-1.5,1-2.3c0.4-0.4,1-1.2,1-1.9c0-0.3-0.1-0.5-0.3-0.7c0.7-0.9,1.7-1.5,3-1.5c0.5,0,1,0.1,1.5,0.3
		c1.9,1.2,4.4,1.6,6.5,2.8c1.1,0.5,1.8,1,1.8,2.1c0,0.3-0.1,0.7-0.2,1.1c-0.6,2.6-2.1,4.9-3.4,7.2c-1.2,2.1-2.4,4.1-3.6,5.7
		c-3.4,4.3-6.6,8.7-9.4,13.6C14.4,60.6,14.8,59.8,15.4,59.2z"/>
	<path d="M91.1,30.7c0.9,0.4,2,0.5,2.9,1.1c0.2-0.1,0.5-0.2,0.7-0.2c0.7,0,1.2,0.6,1.7,1.1c1.2,0.8,3,1.6,3,3.9
		c0,0.2-0.1,0.4-0.1,0.7c-0.3,1.2-1.4,2-2.4,2.7c-1.9,1.2-3.5,2.8-5,4.2c-1.6,1.6-2.9,3.4-4.3,5.1c-0.8,0.9-1.6,1.8-2.3,2.7
		c-0.7,0.9-3.4,5.3-4.2,6.5c1.2-0.7,2.5-2.1,3.6-3.1c7.6-7.1,15.1-14.5,23.3-21.3c0.5-0.5,1.2-0.9,1.9-1.4c1.5-1.2,2.9-2,3.8-2
		c0.4,0,1,0.4,1.5,0.6c1.3,0.5,2.3,0.5,3.2,1.3c1,0.8,1.4,2.1,1.4,3.5c0,1.5-0.4,3.1-1,4.3l-1.5,2.2c-2.8,4.2-5.9,8.3-8.5,12.8
		c-0.5,0.7-0.9,1.5-1.1,2.3c0.2,0.1,0.3,0.2,0.5,0.2c0.6,0,1.2-0.6,1.7-0.9c4.3-2.9,9.1-6.5,12.4-10.6v0.3c0,0.5-0.2,0.9-0.2,1.5
		v0.3c0.1,0.5,0.5,0.9,0.5,1.2c0,0.5-0.5,0.9-0.8,1.2c-0.6,1.1-0.8,2.2-1.3,3.3c-1.3,3-3.5,5.8-5.2,8.2c-0.6,1.6-1.9,2.5-3,3.6
		c-2.5,2.5-5.6,6.4-10,7c-0.3,0-0.5,0.1-0.7,0.1c-2.4,0-3.9-1.9-4.8-3.7c-0.3-0.5-0.7-0.9-0.9-1.4c-0.6-1.1-0.8-2.6-0.8-4
		c0-2.5,0.7-5.1,1.3-7.1c0.5-1.5,2.5-5.6,2.8-7c-0.5,0.2-1,0.8-1.4,1.4c-2.3,2.6-4.8,5.2-7.4,7.8c-1,1.1-2.1,2.1-3,3.2
		c-0.2,0.3-0.4,0.7-0.7,1c-0.4,0.4-0.9,0.6-1.2,1.1c-1.9,2-3.7,4.1-5.8,5.9c-2,1.7-3.4,3.4-6.2,3.7c-0.4,0-0.8,0-1-0.1
		c-1.2-0.3-2.7-2.1-3.3-3c-0.4-1.6-1.2-2.3-1.4-3.8c-0.2-0.8-0.2-1.9-0.2-2.9c0.3-3.2,1.7-6.1,3-8.8l0.3-0.6
		c3.8-7.9,8.7-14.5,13.4-21.5c0.6-0.9,1.2-1.5,1.2-2.4v-0.4c0.5-1,1.6-1.2,2.6-1.6C89.3,29.1,90.1,30.2,91.1,30.7z"/>
	<path d="M132.2,55.9c3.2-3.4,5.9-6.4,9-9.8c3.5-3.7,6.6-7.4,10.7-10.7c0.6-0.5,1.5-1,1.7-1.4c1.2-1.7,3.7-2.5,5.7-2.5h0.6
		c0.8,0.1,1.7,0.4,2.7,0.6c1.8,0.4,3.9,0.6,3.9,2.6c-0.1,0.6-0.6,1.4-1.1,2.1c-2.5,4.4-7.8,11.5-9.8,15.9c0.9-0.3,1.4-1,2-1.6
		l5.5-5.4l9.6-9.4c0.3-1.7,0.8-3.2,2.5-3.4h0.6c2.5,0,5.8,2.1,8.4,2.1h0.3c1.1,0.6,2.6,1.1,2.8,2.3c0,0.2,0.1,0.3,0.1,0.5
		c0,1.1-0.8,1.9-1.4,2.5l-0.1,0.1c-0.8,1.1-1.5,2.4-2.3,3.6c-3.3,5.6-8.9,11.7-10,19.8c1.6-0.2,2.8-1.4,4.1-2.3
		c3.4-2.4,6.4-5.2,9.3-8.5c0.1-0.2,0.3-0.6,0.6-0.6h0.1c-0.8,1.5-1.7,2.8-2.4,4.3c-0.4,0.5-0.3,1.1-0.6,1.5
		c-0.1,0.6-0.5,1.1-0.7,1.6l-1.3,2l-1.1,2.6c-1.7,2.4-2.9,5.3-5.7,6.8l-0.3,0.8c-0.1,0-0.1,0.1-0.2,0.1c-1.2,0.5-2.4,0.9-4,0.9h-0.5
		c-0.9,0-4.5-0.7-5.2-1.2c-0.5-0.3-1.1-0.7-1.4-1.2c-1.8-1.9-2.9-4.5-2.9-7.6v-1.1c0.3-3.5,1.3-6.1,2.3-9.7
		c-3.8,4-7.1,9.1-10.4,13.9c-0.6,0.9-1.2,1.9-1.9,2.7c-0.7,0.8-1.4,1.9-2.2,2.6c-0.6,0.5-1.6,1.4-2.4,1.8c-0.5,0.2-1,0.3-1.6,0.3
		c-2.2,0-4.5-1.4-5.5-2.6c-0.5-0.6-0.9-1.1-1-2v-0.3c0-0.9,0.3-1.8,0.7-2.6c1.6-4.4,4.4-11.2,6.4-15.2c-1.8,2-4.4,4.5-6,6.6
		c-1.6,2-3.6,3.8-5.2,5.8c-2.5,3.1-5.1,6.2-7.9,9.1c-0.9,0.2-1.2,1-1.6,1.8h-0.4c-2.7,0-3.2-1-5.1-1.9c-0.2-0.1-0.4-0.1-0.6-0.1
		c-0.3,0-0.6,0.1-1,0.3c-0.2-0.1-0.5-0.4-0.8-0.4c-0.6-0.3-1-0.8-1.4-1c-1.4-1.3-2-3.3-2-5.3c0-1.9,0.5-3.8,1.1-5.3
		c1.6-4.8,3.7-9.1,5.9-13.1c1.6-2.9,2.9-5.6,4.7-8.1c1.8-2.6,3.6-5.4,5.1-8.3c-0.1-0.2-0.2-0.3-0.2-0.5c0-0.5,0.6-0.8,1.2-0.9h0.2
		c1.4,0,3,0.8,3.9,1c0.7,0.4,1.7,0.9,2.5,1.2c1.1,0.3,4,1.2,4.6,1.9c0.6,0.5,0.8,1.4,0.8,2.3c0,0.9-0.2,1.8-0.7,2.5
		c-0.5,0.7-1.4,1.5-2.1,2.1c-1.8,2.5-3.6,5-5.4,7.8c-2.3,3.7-4.7,7.2-6.7,10.7C130.1,58,131.2,57,132.2,55.9z"/>
	<path d="M201,61.6c3.9-3.1,7.7-6.3,11.4-9.7c2-1.9,4.4-4,5.7-6.4c0,0.2-0.1,0.3-0.1,0.5c0,0.7,0.3,1.3,0.3,1.9
		c-0.1,0.4-0.5,0.8-0.7,1.2l-0.2,0.8c-0.2,0.5-0.5,1.1-0.9,1.5c0,0.1-0.1,0.1-0.1,0.2l-1.2,2.3c-1.2,1.1-2.6,3.8-3.7,5.2
		c-0.5,0.8-1.1,1.3-1.3,2.2c-2.1,1.8-3.2,3-4.7,5.1c-0.4,0.7-1.9,1.8-2.1,2.4c-1.4,1.1-3.5,2-4.9,3.1c-0.9,0.7-1.2,1-2.6,1.6
		c-0.9,0.3-2.2,0.9-3.7,0.9h-0.3c-0.8,0-2.4-0.3-3.4-0.7c-1.4-0.5-2.9-2.7-3.8-4.1c-0.7-1.2-1.1-2.7-1.1-4.5c0-0.4,0.1-0.8,0.1-1.2
		c0.1-2.9,1.3-5.8,2.3-8.5l0.3-0.7c2.2-5.8,4.9-11.1,8-16.1c4.5-7.5,9.5-15.1,14.4-21.9c3.4-4.8,7.4-9.3,10.2-14.1
		c0-0.5-0.2-0.4-0.2-0.7V1.7c0.1-1,2.1-1.7,3.7-1.7h0.5c0.3,0,0.5,0.2,0.7,0.3c0.4,0.2,0.7,0.2,0.9,0.3c0.9,0.4,1.4,1.2,2.2,1.7
		c0.7,0.4,1.5,0.4,2.3,0.7c0.9,0.6,1.8,2,1.8,3.4c0,0.3,0,0.5-0.1,0.8c-0.5,1.5-1.4,3-2.1,4.3c-0.8,1.5-1.6,2.8-2.5,4
		c-1.3,1.9-2.6,3.9-3.9,5.7c-3.1,4.3-6.2,8.3-8.8,12.6c-2,2.7-3.7,5.4-5.5,8.2c-2.8,3.5-5.1,7.5-7.4,11.1c-1.3,2.1-2.5,4.4-3.8,6.7
		c-0.9,1.8-1.7,4-2.3,6.2C196.7,65.2,199.1,63.1,201,61.6z"/>
</g>
</svg>
